<svg xmlns="http://www.w3.org/2000/svg" version="1.1" xmlns:xlink="http://www.w3.org/1999/xlink" xmlns:svgjs="http://svgjs.dev/svgjs" width="1000" height="1000" viewBox="0 0 1000 1000"><rect width="1000" height="1000" fill="#ffffff"></rect><g transform="matrix(0.7,0,0,0.7,149.90044910179654,149.90044910179637)"><svg viewBox="0 0 334 334" data-background-color="#ffffff" preserveAspectRatio="xMidYMid meet" height="1000" width="1000" xmlns="http://www.w3.org/2000/svg" xmlns:xlink="http://www.w3.org/1999/xlink"><g id="tight-bounds" transform="matrix(1,0,0,1,0.04749999999998522,0.04750000000001364)"><svg viewBox="0 0 333.90454557049503 333.90454557049503" height="333.90454557049503" width="333.90454557049503"><g><svg></svg></g><g><svg viewBox="0 0 333.90454557049503 333.90454557049503" height="333.90454557049503" width="333.90454557049503"><g><path d="M0 166.952c0-92.205 74.747-166.952 166.952-166.952 92.205 0 166.952 74.747 166.953 166.952 0 92.205-74.747 166.952-166.953 166.953-92.205 0-166.952-74.747-166.952-166.953zM166.952 316.63c82.665 0 149.677-67.013 149.678-149.678 0-82.665-67.013-149.677-149.678-149.677-82.665 0-149.677 67.013-149.677 149.677 0 82.665 67.013 149.677 149.677 149.678z" data-fill-palette-color="tertiary" fill="#7943ed" stroke="transparent"></path><ellipse rx="160.27418187383762" ry="160.27418187383762" cx="166.95227278524752" cy="166.95227278524752" fill="#7943ed" stroke="transparent" stroke-width="0" fill-opacity="1" data-fill-palette-color="tertiary"></ellipse></g><g transform="matrix(1,0,0,1,123.31951672795061,71.17305217166896)"><svg viewBox="0 0 87.2655121145938 191.55844122715712" height="191.55844122715712" width="87.2655121145938"><g><svg viewBox="0 0 87.2655121145938 191.55844122715712" height="191.55844122715712" width="87.2655121145938"><g><svg viewBox="0 0 87.2655121145938 191.55844122715712" height="191.55844122715712" width="87.2655121145938"><g><svg viewBox="0 0 87.2655121145938 191.55844122715712" height="191.55844122715712" width="87.2655121145938"><g><svg viewBox="0 0 87.2655121145938 191.55844122715712" height="191.55844122715712" width="87.2655121145938"><g><svg viewBox="0 0 87.2655121145938 191.55844122715712" height="191.55844122715712" width="87.2655121145938"><g transform="matrix(1,0,0,1,0,0)"><svg width="87.2655121145938" viewBox="1.65 -35.5 16.400000000000002 36" height="191.55844122715712" data-palette-color="#ffffff"><path d="M9.85 0.5Q5.85 0.5 3.75-1.78 1.65-4.05 1.65-8.3L1.65-8.3 1.65-26.7Q1.65-30.95 3.75-33.23 5.85-35.5 9.85-35.5L9.85-35.5Q13.85-35.5 15.95-33.23 18.05-30.95 18.05-26.7L18.05-26.7 18.05-23.7 12.85-23.7 12.85-27.05Q12.85-30.5 10-30.5L10-30.5Q7.15-30.5 7.15-27.05L7.15-27.05 7.15-7.9Q7.15-4.5 10-4.5L10-4.5Q12.85-4.5 12.85-7.9L12.85-7.9 12.85-14.75 10.1-14.75 10.1-19.75 18.05-19.75 18.05-8.3Q18.05-4.05 15.95-1.78 13.85 0.5 9.85 0.5L9.85 0.5Z" opacity="1" transform="matrix(1,0,0,1,0,0)" fill="#ffffff" class="undefined-text-0" data-fill-palette-color="quaternary" id="text-0"></path></svg></g></svg></g></svg></g></svg></g><g></g></svg></g></svg></g></svg></g></svg></g><defs></defs></svg><rect width="333.90454557049503" height="333.90454557049503" fill="none" stroke="none" visibility="hidden"></rect></g></svg></g></svg>